<?xml version="1.0" encoding="UTF-8"?>
<svg xmlns="http://www.w3.org/2000/svg" xmlns:xlink="http://www.w3.org/1999/xlink" width="56.879997pt" height="56.999997pt" viewBox="0 0 56.879997 56.999997" version="1.2">
<defs>
<clipPath id="clip1">
  <path d="M 2 3 L 55 3 L 55 55.84375 L 2 55.84375 Z M 2 3 "/>
</clipPath>
<clipPath id="clip2">
  <path d="M 2 13 L 55 13 L 55 55.84375 L 2 55.84375 Z M 2 13 "/>
</clipPath>
<clipPath id="clip3">
  <path d="M 2 3 L 55 3 L 55 55.84375 L 2 55.84375 Z M 2 3 "/>
</clipPath>
</defs>
<g id="surface1">
<g clip-path="url(#clip1)" clip-rule="nonzero">
<path style=" stroke:none;fill-rule:nonzero;fill:rgb(54.508972%,71.759033%,94.119263%);fill-opacity:1;" d="M 28.3125 3.050781 C 27.460938 3.050781 26.613281 3.09375 25.765625 3.179688 C 24.921875 3.265625 24.082031 3.390625 23.246094 3.558594 C 22.414062 3.726562 21.589844 3.9375 20.773438 4.1875 C 19.960938 4.4375 19.164062 4.730469 18.375 5.058594 C 17.589844 5.390625 16.824219 5.757812 16.074219 6.167969 C 15.324219 6.574219 14.59375 7.015625 13.886719 7.496094 C 13.179688 7.976562 12.5 8.492188 11.84375 9.039062 C 11.183594 9.585938 10.554688 10.167969 9.953125 10.777344 C 9.351562 11.386719 8.78125 12.027344 8.242188 12.695312 C 7.703125 13.363281 7.199219 14.054688 6.726562 14.773438 C 6.253906 15.492188 5.816406 16.230469 5.414062 16.992188 C 5.015625 17.753906 4.652344 18.535156 4.328125 19.332031 C 4 20.132812 3.714844 20.945312 3.46875 21.769531 C 3.222656 22.597656 3.015625 23.433594 2.847656 24.28125 C 2.683594 25.128906 2.558594 25.980469 2.476562 26.839844 C 2.390625 27.699219 2.351562 28.5625 2.351562 29.425781 C 2.351562 30.289062 2.390625 31.152344 2.476562 32.011719 C 2.558594 32.871094 2.683594 33.722656 2.847656 34.570312 C 3.015625 35.417969 3.222656 36.253906 3.46875 37.082031 C 3.714844 37.90625 4 38.71875 4.328125 39.519531 C 4.652344 40.316406 5.015625 41.097656 5.414062 41.859375 C 5.816406 42.621094 6.253906 43.359375 6.726562 44.078125 C 7.199219 44.796875 7.703125 45.488281 8.242188 46.15625 C 8.78125 46.824219 9.351562 47.464844 9.953125 48.074219 C 10.554688 48.683594 11.183594 49.265625 11.84375 49.8125 C 12.5 50.359375 13.179688 50.875 13.886719 51.355469 C 14.59375 51.835938 15.324219 52.277344 16.074219 52.683594 C 16.824219 53.09375 17.589844 53.460938 18.375 53.792969 C 19.164062 54.121094 19.960938 54.414062 20.773438 54.664062 C 21.589844 54.914062 22.414062 55.125 23.246094 55.292969 C 24.082031 55.460938 24.921875 55.585938 25.765625 55.671875 C 26.613281 55.757812 27.460938 55.800781 28.3125 55.800781 C 29.160156 55.800781 30.011719 55.757812 30.855469 55.671875 C 31.703125 55.585938 32.542969 55.460938 33.375 55.292969 C 34.210938 55.125 35.035156 54.914062 35.847656 54.664062 C 36.660156 54.414062 37.460938 54.121094 38.246094 53.792969 C 39.03125 53.460938 39.800781 53.09375 40.550781 52.683594 C 41.300781 52.277344 42.027344 51.835938 42.734375 51.355469 C 43.441406 50.875 44.125 50.359375 44.78125 49.8125 C 45.4375 49.265625 46.066406 48.683594 46.667969 48.074219 C 47.269531 47.464844 47.839844 46.824219 48.378906 46.15625 C 48.917969 45.488281 49.425781 44.796875 49.898438 44.078125 C 50.371094 43.359375 50.804688 42.621094 51.207031 41.859375 C 51.609375 41.097656 51.972656 40.316406 52.296875 39.519531 C 52.621094 38.71875 52.90625 37.90625 53.15625 37.082031 C 53.402344 36.253906 53.609375 35.417969 53.773438 34.570312 C 53.9375 33.722656 54.0625 32.871094 54.148438 32.011719 C 54.230469 31.152344 54.273438 30.289062 54.273438 29.425781 C 54.273438 28.5625 54.230469 27.699219 54.148438 26.839844 C 54.0625 25.980469 53.9375 25.128906 53.773438 24.28125 C 53.609375 23.433594 53.402344 22.597656 53.15625 21.769531 C 52.90625 20.945312 52.621094 20.132812 52.296875 19.332031 C 51.972656 18.535156 51.609375 17.753906 51.207031 16.992188 C 50.804688 16.230469 50.371094 15.492188 49.898438 14.773438 C 49.425781 14.054688 48.917969 13.363281 48.378906 12.695312 C 47.839844 12.027344 47.269531 11.386719 46.667969 10.777344 C 46.066406 10.167969 45.4375 9.585938 44.78125 9.039062 C 44.125 8.492188 43.441406 7.976562 42.734375 7.496094 C 42.027344 7.015625 41.300781 6.574219 40.550781 6.167969 C 39.800781 5.757812 39.03125 5.390625 38.246094 5.058594 C 37.460938 4.730469 36.660156 4.4375 35.847656 4.1875 C 35.035156 3.9375 34.210938 3.726562 33.375 3.558594 C 32.542969 3.390625 31.703125 3.265625 30.855469 3.179688 C 30.011719 3.09375 29.160156 3.050781 28.3125 3.050781 Z M 28.3125 3.050781 "/>
</g>
<g clip-path="url(#clip2)" clip-rule="nonzero">
<path style=" stroke:none;fill-rule:nonzero;fill:rgb(100%,100%,100%);fill-opacity:1;" d="M 54.125 32.210938 C 54.128906 32.175781 54.136719 32.136719 54.140625 32.101562 C 54.136719 32.136719 54.128906 32.175781 54.125 32.210938 Z M 2.480469 32.089844 C 2.488281 32.140625 2.496094 32.191406 2.503906 32.242188 C 2.496094 32.191406 2.488281 32.140625 2.480469 32.089844 Z M 32.011719 36.414062 L 38.730469 36.414062 L 39.785156 29.480469 L 32.011719 29.480469 L 32.011719 25.691406 C 32.011719 22.8125 32.941406 20.257812 35.589844 20.257812 L 39.851562 20.257812 L 39.851562 14.207031 C 39.105469 14.105469 37.523438 13.878906 34.527344 13.878906 C 28.28125 13.878906 24.617188 17.234375 24.617188 24.871094 L 24.617188 29.484375 L 18.195312 29.484375 L 18.195312 36.417969 L 24.617188 36.417969 L 24.617188 55.105469 C 25.886719 55.296875 27.175781 55.429688 28.5 55.429688 C 29.691406 55.429688 30.859375 55.320312 32.011719 55.160156 Z M 32.011719 36.414062 "/>
</g>
<g clip-path="url(#clip3)" clip-rule="nonzero">
<path style=" stroke:none;fill-rule:nonzero;fill:rgb(30.589294%,47.839355%,70.979309%);fill-opacity:1;" d="M 28.3125 4.9375 C 41.601562 4.9375 52.417969 15.921875 52.417969 29.425781 C 52.417969 42.929688 41.601562 53.914062 28.3125 53.914062 C 15.019531 53.914062 4.203125 42.929688 4.203125 29.425781 C 4.203125 15.921875 15.019531 4.9375 28.3125 4.9375 M 28.3125 3.050781 C 13.972656 3.050781 2.351562 14.859375 2.351562 29.425781 C 2.351562 43.992188 13.972656 55.800781 28.3125 55.800781 C 42.648438 55.800781 54.273438 43.992188 54.273438 29.425781 C 54.273438 14.859375 42.648438 3.050781 28.3125 3.050781 Z M 28.3125 3.050781 "/>
</g>
</g>
</svg>
