<?xml version="1.0" encoding="UTF-8"?><svg xmlns="http://www.w3.org/2000/svg" xmlns:xlink="http://www.w3.org/1999/xlink" width="56.879997pt" zoomAndPan="magnify" viewBox="0 0 56.879997 56.999997" height="56.999997pt" preserveAspectRatio="xMidYMid meet" version="1.2"><defs><clipPath xml:id="clip1" id="clip1"><path d="M 2.644531 2.703125 L 55.78125 2.703125 L 55.78125 55.84375 L 2.644531 55.84375 Z M 2.644531 2.703125 "/></clipPath></defs><g xml:id="surface1" id="surface1"><g clip-rule="nonzero" clip-path="url(#clip1)"><path style=" stroke:none;fill-rule:nonzero;fill:rgb(33.329773%,67.449951%,93.328857%);fill-opacity:1;" d="M 55.757812 29.285156 C 55.757812 43.953125 43.867188 55.84375 29.199219 55.84375 C 14.535156 55.84375 2.644531 43.953125 2.644531 29.285156 C 2.644531 14.621094 14.535156 2.730469 29.199219 2.730469 C 43.867188 2.730469 55.757812 14.621094 55.757812 29.285156 Z M 55.757812 29.285156 "/></g><path style=" stroke:none;fill-rule:nonzero;fill:rgb(94.509888%,94.898987%,94.898987%);fill-opacity:1;" d="M 45.464844 21.816406 C 44.328125 22.320312 43.105469 22.660156 41.820312 22.8125 C 43.132812 22.027344 44.136719 20.785156 44.613281 19.300781 C 43.386719 20.027344 42.027344 20.558594 40.582031 20.839844 C 39.425781 19.605469 37.773438 18.835938 35.949219 18.835938 C 32.441406 18.835938 29.601562 21.679688 29.601562 25.183594 C 29.601562 25.683594 29.65625 26.167969 29.765625 26.632812 C 24.488281 26.367188 19.8125 23.839844 16.679688 19.996094 C 16.132812 20.9375 15.820312 22.027344 15.820312 23.191406 C 15.820312 25.394531 16.941406 27.335938 18.644531 28.472656 C 17.605469 28.441406 16.625 28.15625 15.769531 27.679688 C 15.769531 27.707031 15.769531 27.730469 15.769531 27.761719 C 15.769531 30.835938 17.957031 33.398438 20.859375 33.980469 C 20.328125 34.128906 19.765625 34.207031 19.191406 34.207031 C 18.78125 34.207031 18.382812 34.167969 17.996094 34.09375 C 18.804688 36.613281 21.148438 38.449219 23.925781 38.5 C 21.753906 40.203125 19.015625 41.21875 16.042969 41.21875 C 15.527344 41.21875 15.023438 41.191406 14.527344 41.128906 C 17.335938 42.929688 20.671875 43.980469 24.257812 43.980469 C 35.929688 43.980469 42.316406 34.308594 42.316406 25.921875 C 42.316406 25.644531 42.3125 25.371094 42.300781 25.097656 C 43.539062 24.203125 44.617188 23.085938 45.464844 21.816406 Z M 45.464844 21.816406 "/></g></svg>